<?xml version="1.0" encoding="UTF-8" standalone="no"?>
<svg version="1.1" viewBox="0 0 1024 1024" xmlns="http://www.w3.org/2000/svg">
  <path
    fill="#2c3e66"
    d="m 449.90247,276.48025 c 22.86496,0 41.39747,18.33887 41.39747,40.95915 0,22.6229 -18.53512,40.96177 -41.39747,40.96177 -22.86499,0 -41.3975,-18.33887 -41.3975,-40.96177 0,-22.62028 18.53251,-40.95915 41.3975,-40.95915 z m 134.54379,0 c 22.86499,0 41.40012,18.33887 41.40012,40.95915 0,22.6229 -18.53513,40.96177 -41.40012,40.96177 -22.86235,0 -41.39748,-18.33887 -41.39748,-40.96177 0,-22.62028 18.53513,-40.95915 41.39748,-40.95915 z M 189.60264,811.67351 C 170.63869,751.28896 160.1148,684.56118 160.1148,614.40052 l 0.39481,-23.49467 c -58.38478,31.69014 -123.912711,64.45386 -145.289964,64.45386 -55.23934,0 47.735376,-126.33112 182.485724,-262.24167 12.70976,-35.15147 28.3531,-67.88157 46.48297,-97.56164 C 257.44192,129.66051 372.28707,0 512.00001,0 c 139.71295,0 254.5555,129.66051 267.81168,295.5564 18.12988,29.68007 33.77322,62.41017 46.48295,97.56164 134.75037,135.91055 237.72506,262.24167 182.48566,262.24167 -21.37717,0 -86.90513,-32.76114 -145.28988,-64.45386 l 0.39481,23.49467 c 0,70.16066 -10.52391,136.88844 -29.48783,197.27299 l -53.30717,-12.95283 c 0,-157.56851 -72.16387,-292.0485 -173.68223,-344.7964 L 512.00001,614.40052 416.60249,453.94497 C 315.07889,506.78341 242.91238,641.67991 242.91502,801.08513 Z M 408.50236,184.32017 c -57.1585,0 -103.49504,55.01665 -103.49504,122.88011 0,67.86601 46.33654,122.88009 103.49504,122.88009 57.16111,0 103.49765,-55.01408 103.49765,-122.88009 0,-67.86346 -46.33654,-122.88011 -103.49765,-122.88011 z m 103.49765,122.88011 c 0,45.24314 46.33654,92.16007 103.49503,92.16007 57.1585,0 103.49504,-46.91693 103.49504,-92.16007 0,-45.24318 -46.33654,-92.16008 -103.49504,-92.16008 -57.15849,0 -103.49503,46.9169 -103.49503,92.16008 z M 305.00732,819.20154 c 80.11236,0 146.9398,35.17994 162.28246,81.91835 h 13.66146 v 40.96176 H 467.28978 C 451.94712,988.82007 385.11968,1024 305.00732,1024 c -91.45465,0 -165.59259,-45.84592 -165.59259,-102.39923 0,-56.5533 74.13794,-102.39923 165.59259,-102.39923 z m 413.98276,0 c 91.45466,0 165.5952,45.84593 165.5952,102.39923 0,56.55331 -74.14054,102.39923 -165.5952,102.39923 -80.11236,0 -146.93717,-35.17993 -162.27984,-81.91835 h -13.66146 v -40.96176 h 13.66146 c 15.34267,-46.73841 82.16748,-81.91835 162.27984,-81.91835 z"
  />
</svg>
