<?xml version="1.0" encoding="UTF-8" standalone="no"?>
<svg viewBox="0 0 1024 1024" xmlns="http://www.w3.org/2000/svg">
  <path
    fill="#2c3e66"
    d="M 515.40075,0.39506922 C 490.51377,2.3156083 467.70737,7.837158 450.10243,16.239516 c -26.24737,12.403482 -44.33245,30.168468 -57.13604,56.015722 -10.16285,20.565773 -15.6844,42.011792 -18.32514,71.620102 -1.28036,13.36375 -1.0403,52.7348 0.40011,73.62066 2.00056,30.88867 2.32065,54.65534 0.80022,68.01909 -4.40123,37.77061 -13.36375,65.05826 -31.20876,95.06669 -6.72188,11.20314 -12.16341,18.72525 -25.36712,35.12986 -62.73761,77.78183 -103.7091,157.24413 -114.35209,221.90228 -2.80079,17.28485 -3.68104,33.36936 -2.4807,48.89372 l 1.04029,13.68384 -5.12143,5.28148 c -2.88081,2.96084 -9.44265,11.12313 -14.64411,18.1651 -15.20427,20.56577 -18.24512,22.8064 -41.61168,31.20876 -19.60551,7.04198 -26.32739,10.88306 -34.72975,20.08564 -13.043662,14.244 -15.364313,28.32795 -10.482943,62.3375 1.520427,10.72301 2.400674,20.08563 2.400674,25.76723 0,8.16229 -0.240068,9.76274 -2.800786,17.44489 -5.52155,16.40461 -7.121999,24.48688 -7.121999,36.41022 -0.08002,8.16229 0.32009,11.84333 1.360382,15.20427 4.24119,13.44377 14.003932,22.72638 29.528292,28.08788 9.04253,3.04086 20.08563,5.20146 39.211,7.52212 58.01628,7.12199 68.01909,9.52267 95.06668,22.40628 32.32908,15.44435 52.65478,20.96585 79.38228,21.76615 9.68272,0.3201 17.20483,0.08 21.52605,-0.4802 26.08732,-3.841 46.97318,-17.2048 57.93626,-37.05037 l 2.96083,-5.44153 h 4.80134 c 5.84164,0 10.88306,-0.7202 35.44995,-5.20146 47.85344,-8.72245 65.69844,-9.52267 100.02808,-4.40123 25.20707,3.68103 36.97038,4.80134 52.33469,5.20146 l 13.84388,0.32009 1.84052,5.20146 c 5.04142,14.40404 18.32514,31.76888 30.80865,40.25128 36.57026,24.807 88.34479,15.4443 131.63694,-23.76666 3.52099,-3.12087 10.88306,-10.80303 16.40461,-16.88474 19.28541,-21.44601 30.88867,-29.36824 75.30113,-51.53446 24.16679,-12.08339 28.80809,-14.64411 37.29047,-20.96588 9.20258,-6.88194 14.32402,-13.60382 17.04478,-22.56634 5.04142,-16.16453 -2.24062,-34.64972 -23.76667,-60.25691 -11.0431,-13.28373 -13.2037,-18.08508 -19.44545,-44.25242 -1.7605,-7.52211 -4.16117,-16.48463 -5.28149,-20.00562 -5.20146,-16.08451 -13.60381,-26.64747 -26.96757,-33.68945 -4.24119,-2.24063 -5.3615,-3.2009 -4.96139,-4.16117 1.60045,-4.00112 6.88193,-26.7275 8.08227,-34.96981 1.84052,-12.00337 2.08058,-45.61281 0.48013,-56.81595 -5.28148,-35.44995 -13.9239,-62.81763 -30.96869,-97.6274 -17.1248,-34.88979 -43.77228,-74.821 -72.82044,-109.23066 -12.08339,-14.32402 -30.48855,-38.57083 -39.61111,-52.25467 -18.80528,-28.00786 -28.88811,-53.455 -32.00899,-80.1825 -0.40011,-4.00112 -0.80022,-25.20708 -0.80022,-47.61336 0,-60.97712 -2.24063,-87.6246 -10.00281,-119.07343 C 657.68069,43.927287 617.18932,6.7168436 551.41086,0.71515906 542.84846,-0.08506554 523.72309,-0.24511046 515.40075,0.39506922 Z M 568.45564,143.7153 c 17.4449,6.24175 31.44883,24.40685 36.17016,46.97318 1.76049,8.40236 1.84051,25.20707 0.08,32.88923 -2.08059,9.68272 -8.16229,23.84669 -12.48351,28.96813 l -1.52042,1.84052 -11.0431,-4.32122 c -6.08171,-2.40067 -11.84333,-4.6413 -12.8036,-4.88137 l -1.76049,-0.56015 2.32065,-3.76106 c 7.68216,-12.64355 8.56241,-33.52941 2.00056,-46.57307 -6.0817,-12.00337 -15.44433,-16.32458 -25.04703,-11.52323 -4.88137,2.40067 -8.16229,5.92166 -11.36319,12.32345 -3.60101,7.122 -4.80134,12.8036 -4.80134,22.56634 0,4.72132 -0.16005,8.64242 -0.32009,8.64242 -0.16005,0 -2.56072,-1.04029 -5.36151,-2.32065 -2.80078,-1.28036 -7.76218,-3.12087 -10.96308,-4.08114 -3.12087,-0.96027 -6.00168,-2.08059 -6.24175,-2.4807 -1.04029,-1.68047 -0.40011,-21.366 0.88025,-27.52773 3.52099,-16.80471 13.04366,-32.32907 24.88698,-40.41134 4.64131,-3.2009 11.28317,-6.24175 15.68441,-7.20202 5.44152,-1.12031 16.4046,-0.40011 21.68608,1.44041 z m -131.4769,9.04253 c 3.84108,0.96027 9.6027,4.72133 13.68384,8.8825 10.80303,11.0431 17.52492,30.6486 17.52492,51.13435 v 5.3615 l -2.96083,1.04029 c -3.44097,1.0403 -15.44433,6.88194 -16.56465,8.00225 -1.52043,1.36038 -1.68047,0.64018 -1.76049,-6.72189 -0.24007,-22.40628 -14.32402,-38.25073 -25.44715,-28.56801 -11.04309,9.76274 -10.16285,41.13154 1.44041,51.93457 1.12031,1.12032 2.08058,2.24063 2.08058,2.56072 0,0.64018 -10.96307,8.72245 -11.92334,8.72245 -1.68048,0 -6.88194,-7.36207 -10.56297,-14.80416 -5.84164,-12.00336 -7.44209,-19.6055 -7.52211,-35.20988 0,-10.88305 0.32009,-13.84388 1.84052,-19.52548 3.76105,-13.76386 9.84276,-23.60662 18.1651,-29.28822 6.8019,-4.72132 13.28372,-5.76162 22.00617,-3.52099 z m 173.16861,170.84796 c 8.16229,28.72806 18.64523,58.73648 32.88923,94.34648 13.84388,34.48968 20.16566,48.49361 38.01066,84.02358 18.1651,36.25017 24.64692,51.13435 32.80921,75.62122 4.9614,14.72414 11.92335,40.81146 13.28373,49.21382 l 0.48014,3.28092 8.88249,1.04029 c 14.80415,1.76049 13.36375,2.16061 15.44433,-4.40124 10.96308,-34.72974 5.76162,-74.66095 -14.9642,-115.39238 -9.04253,-17.68497 -19.12536,-32.08901 -32.16902,-46.01292 -8.72245,-9.2826 -10.72301,-12.40348 -9.04254,-14.08395 1.04029,-0.96027 1.60045,-0.80023 4.32121,1.36038 8.00225,6.4018 24.16678,25.76723 34.96982,42.17184 20.00561,30.16846 31.44882,58.41639 36.49024,90.42538 1.60045,9.84276 1.36038,35.12986 -0.40012,44.81257 -0.80022,4.40124 -1.52042,8.40236 -1.60044,8.8825 0,0.56015 5.68159,3.84108 12.72357,7.36206 28.80808,14.48407 44.01235,27.68778 48.57363,42.09182 1.28036,3.84108 1.52043,6.32177 1.20034,11.68328 -0.56016,9.2826 -0.72021,9.60269 -5.36151,9.60269 h -3.84108 l 0.40012,-6.64186 c 0.32009,-5.44153 0.08,-7.36207 -1.36039,-11.20315 -3.68103,-9.68271 -16.72469,-20.56577 -36.49024,-30.16846 -30.24849,-14.88418 -52.17464,-18.48519 -67.21886,-11.20315 -9.12256,4.40124 -14.48407,12.32346 -16.88474,25.04703 l -1.28036,6.64187 -6.48182,3.36094 c -12.64355,6.48182 -21.366,15.60438 -28.08788,29.36824 -9.52268,19.52548 -13.5238,42.25186 -16.40461,93.54626 -1.04029,18.40516 -4.16117,33.60943 -12.56353,61.69731 l -1.4404,4.80135 -9.20258,6.16173 c -10.96308,7.36207 -32.08901,18.32514 -44.81258,23.36656 -26.32739,10.24287 -50.33413,14.88418 -76.98161,14.88418 -33.04927,-0.08 -62.41752,-8.40236 -90.90551,-25.84726 -6.16173,-3.68103 -7.122,-4.72132 -12.16342,-12.08339 -3.04085,-4.48126 -9.52267,-13.2037 -14.40404,-19.52548 -4.80135,-6.32177 -8.80247,-11.60326 -8.80247,-11.84332 0,-0.16005 1.52043,-0.32009 3.44097,-0.32009 4.48126,0 12.64355,-2.00056 16.64467,-4.08115 11.68328,-5.92166 16.64467,-18.32514 13.2037,-32.96925 -1.84051,-7.76218 -7.92222,-20.08564 -14.56408,-29.36824 -6.96196,-9.76274 -28.80809,-31.60888 -41.53166,-41.45164 -5.28148,-4.08114 -18.56521,-13.44377 -29.60831,-20.80584 -17.68496,-11.68328 -21.04591,-14.32402 -29.28822,-22.48631 -13.12368,-13.12368 -20.48575,-24.72694 -25.60719,-40.33132 -14.56408,-44.57251 -0.16004,-99.78801 46.25298,-177.64986 4.16117,-6.88193 7.84221,-12.56353 8.32234,-12.56353 2.4807,0 -0.88025,7.92223 -16.4046,38.8109 -7.122,14.08395 -14.244,29.28822 -15.92447,33.76947 -16.40461,45.37274 -17.60494,81.86298 -3.76106,113.39183 3.04085,6.80191 11.0431,20.48575 12.08339,20.48575 0.24007,0 0.7202,-4.96139 0.96027,-11.0431 1.36038,-28.24793 9.28261,-64.73817 20.96589,-96.187 4.24119,-11.44321 9.20258,-22.64635 23.20651,-52.81482 38.81089,-83.70349 56.01572,-134.19767 60.49698,-177.64986 0.56016,-5.04142 1.04029,-9.28261 1.12031,-9.44265 0.56016,-0.64018 19.20539,12.32346 24.64692,17.1248 12.00337,10.56297 18.40517,15.44434 23.68665,18.24513 20.16566,10.56296 44.8926,9.84276 68.25916,-1.92054 3.44096,-1.7605 11.60326,-6.48182 18.08507,-10.56297 8.1623,-5.12144 14.56409,-8.40236 20.88587,-10.80303 17.68496,-6.72189 29.52828,-14.16398 38.25073,-23.92672 2.56072,-2.80078 4.6413,-4.96139 4.72133,-4.88137 0.08,0.08 1.76049,6.00169 3.84108,13.04367 z M 235.08208,699.71135 c -0.24007,0.24006 -0.96027,0.32009 -1.52043,0.08 -0.64018,-0.24007 -0.40011,-0.48014 0.48013,-0.48014 0.88025,-0.08 1.36039,0.16005 1.0403,0.40012 z m -8.24232,2.24063 c -4.72132,1.76049 -8.16229,3.76105 -12.32346,7.20202 -1.52042,1.28036 -1.4404,1.12031 0.40012,-0.96027 2.64074,-2.88081 12.4835,-8.16229 15.12424,-8.08227 0.88025,0 -0.48013,0.80022 -3.2009,1.84052 z m 49.45388,16.24456 c 3.36095,3.44096 7.122,7.52211 8.32234,9.04253 1.20034,1.52043 -0.80023,-0.32009 -4.40124,-4.16116 -3.60101,-3.84108 -8.40236,-8.64243 -10.72301,-10.72301 -2.32065,-2.08059 -3.04085,-2.96084 -1.68047,-2.08059 1.28036,0.88025 5.12144,4.48126 8.48238,7.92223 z m -148.28162,57.3761 c -0.16004,0.16004 -1.92054,1.52043 -3.9211,3.04085 -4.00112,3.04086 -6.48182,4.56128 -5.20146,3.28092 1.28036,-1.36038 8.48238,-6.64186 8.96252,-6.64186 0.32009,0 0.32009,0.16004 0.16004,0.32009 z m -19.36543,29.84838 c -0.24007,0.80022 -0.40011,0.32009 -0.40011,-0.96027 0,-1.36038 0.16004,-1.92054 0.40011,-1.44041 0.16004,0.56016 0.16004,1.68047 0,2.40068 z m 300.08422,125.23515 c -0.24006,0.64018 -0.48013,0.40011 -0.48013,-0.48014 -0.08,-0.88025 0.16004,-1.36038 0.40011,-1.04029 0.24007,0.24007 0.32009,0.96027 0.08,1.52043 z m -280.23865,16.88474 c 4.00112,1.12031 8.64242,2.32065 10.40292,2.64074 1.76049,0.32009 2.72076,0.7202 2.1606,0.96027 -1.84051,0.56015 -21.7661,-4.88137 -21.7661,-6.00169 0,-0.24007 0.48013,-0.24007 1.04029,0 0.48013,0.16005 4.24119,1.28036 8.16229,2.40068 z m 16.64467,4.32121 c -0.56016,0.16004 -1.52043,0.16004 -2.00056,0 -0.56016,-0.24007 -0.16005,-0.40011 0.96027,-0.40011 1.12031,0 1.52043,0.16004 1.04029,0.40011 z m 256.15189,17.20483 c -3.20089,6.24175 -10.723,14.244 -16.72469,17.76498 -1.76049,1.0403 -1.52043,0.72021 0.80023,-1.20033 5.52155,-4.48126 11.12312,-10.56297 13.9239,-14.9642 3.12088,-4.72133 4.00113,-5.44153 2.00056,-1.60045 z"
  />
</svg>
